# xmcd
#
# Track frame offsets: 
#        150
#        16487
#        27301
#        41010
#        64962
#        85898
#        95263
#        105853
#        123080
#        137512
#        152314
#        174041
#        194701
#        210097
#        226743
#        239956
#        257340
#        270688
#        287504
#
# Disc length: 4459 seconds
#
# Revision: 1
# Processed by: cddbd v1.5.2PL0 Copyright (c) Steve Scherf et al.
# Submitted via: ExactAudioCopy v0.95b2
#
DISCID=ee116913
DTITLE=Spencer Dickinson - The Man Who Lives For Love
DYEAR=2006
DGENRE=Blues
TTITLE0=That's A Drag
TTITLE1=I'm Not Ready
TTITLE2=Zigaboo
TTITLE3=Body (My Only Friend)
TTITLE4=Primitive
TTITLE5=Sat Morn Cartoons
TTITLE6=(Chug Chug) It's Not OK
TTITLE7=Why!?
TTITLE8=Flood (The Awful Truth, The Living End)
TTITLE9=Away Baby
TTITLE10=Cryin'
TTITLE11=Book Of Sorrow
TTITLE12=The Man Who Lives For Love
TTITLE13=True
TTITLE14=Appalachia
TTITLE15=Free
TTITLE16=Love Without A Smile
TTITLE17=Whatcha Gonna Do
TTITLE18=I'm So Alone
EXTD=
EXTT0=
EXTT1=
EXTT2=
EXTT3=
EXTT4=
EXTT5=
EXTT6=
EXTT7=
EXTT8=
EXTT9=
EXTT10=
EXTT11=
EXTT12=
EXTT13=
EXTT14=
EXTT15=
EXTT16=
EXTT17=
EXTT18=
PLAYORDER=
